<svg width="81" height="65" viewBox="0 0 81 65" fill="none" xmlns="http://www.w3.org/2000/svg">
<path d="M21.7319 1.50505L13.9625 40.3519H4.97228L11.2988 8.71946H3.5294L4.97228 1.50505H21.7319Z" fill="#303030"/>
<path d="M38.1364 41.0178C33.8078 41.0178 30.3856 39.7229 27.8698 37.1331C25.354 34.5063 24.0961 30.8991 24.0961 26.3115C24.0961 21.6499 24.947 17.3768 26.6489 13.4921C28.3877 9.60739 30.7925 6.53664 33.8633 4.27983C36.934 1.98602 40.4303 0.839111 44.3519 0.839111C48.6806 0.839111 52.1028 2.1525 54.6186 4.77929C57.1344 7.36907 58.3923 10.9578 58.3923 15.5454C58.3923 20.207 57.5228 24.4802 55.784 28.3649C54.0821 32.2495 51.6958 35.3388 48.6251 37.6326C45.5543 39.8894 42.0581 41.0178 38.1364 41.0178ZM38.9689 33.4149C41.1147 33.4149 42.9645 32.49 44.5184 30.6402C46.1093 28.7903 47.3117 26.4965 48.1256 23.7587C48.9396 20.984 49.3465 18.3202 49.3465 15.7674C49.3465 13.2886 48.8286 11.4572 47.7926 10.2733C46.7937 9.05243 45.3694 8.44198 43.5195 8.44198C41.3737 8.44198 39.5053 9.36691 37.9145 11.2168C36.3606 13.0666 35.1767 15.3789 34.3628 18.1537C33.5488 20.8915 33.1419 23.5367 33.1419 26.0895C33.1419 28.5683 33.6413 30.4182 34.6402 31.6391C35.6761 32.823 37.119 33.4149 38.9689 33.4149Z" fill="#303030"/>
<path d="M80.75 1.50505L72.9806 40.3519H63.9904L70.3169 8.71946H62.5475L63.9904 1.50505H80.75Z" fill="#303030"/>
<path d="M14.899 43.8065L11.5909 60.3919H10.0709L10.4509 58.5366C9.88465 59.1625 9.21408 59.6468 8.4392 59.9896C7.66432 60.3323 6.80748 60.5037 5.86868 60.5037C4.87028 60.5037 3.98364 60.3025 3.20876 59.9001C2.43388 59.4978 1.83036 58.9241 1.39822 58.179C0.966072 57.419 0.75 56.5324 0.75 55.5191C0.75 54.1928 1.03313 53.0007 1.59939 51.9427C2.18055 50.8847 2.97778 50.0577 3.99109 49.4616C5.00439 48.8506 6.13691 48.5452 7.38864 48.5452C8.49136 48.5452 9.4227 48.7687 10.1827 49.2157C10.9576 49.6479 11.5164 50.2737 11.8591 51.0933L13.312 43.8065H14.899ZM6.20397 59.0955C7.17257 59.0955 8.04431 58.8645 8.81919 58.4025C9.59407 57.9257 10.1976 57.27 10.6297 56.4355C11.0768 55.5861 11.3003 54.6399 11.3003 53.5968C11.3003 52.4494 10.9576 51.5553 10.2721 50.9145C9.60152 50.2588 8.65527 49.931 7.43335 49.931C6.46475 49.931 5.59301 50.1694 4.81812 50.6463C4.04324 51.1231 3.43228 51.7862 2.98523 52.6356C2.55309 53.4701 2.33702 54.4089 2.33702 55.452C2.33702 56.5994 2.6723 57.4935 3.34287 58.1343C4.02834 58.7751 4.98204 59.0955 6.20397 59.0955Z" fill="#303030"/>
<path d="M18.3353 48.6346H19.9224L17.5977 60.3919H16.0107L18.3353 48.6346ZM19.8106 46.064C19.4977 46.064 19.2369 45.9597 19.0283 45.7511C18.8345 45.5425 18.7377 45.2966 18.7377 45.0135C18.7377 44.6707 18.8495 44.3876 19.073 44.1641C19.3114 43.9257 19.6094 43.8065 19.9671 43.8065C20.28 43.8065 20.5408 43.9108 20.7494 44.1194C20.958 44.3131 21.0623 44.5441 21.0623 44.8123C21.0623 45.1699 20.9431 45.468 20.7047 45.7064C20.4663 45.9448 20.1682 46.064 19.8106 46.064Z" fill="#303030"/>
<path d="M35.2461 48.6346L33.1897 58.9613C32.7873 61.0177 32.0274 62.5079 30.9098 63.4318C29.807 64.3706 28.2871 64.84 26.3499 64.84C25.2472 64.84 24.2488 64.6835 23.3547 64.3706C22.4755 64.0726 21.7304 63.6404 21.1194 63.0742L22.0582 61.8671C22.5351 62.3589 23.1535 62.7389 23.9135 63.0071C24.6884 63.2902 25.5377 63.4318 26.4616 63.4318C27.9369 63.4318 29.0843 63.0891 29.9039 62.4036C30.7235 61.7181 31.2748 60.6601 31.558 59.2296L31.8262 57.9331C31.2599 58.5739 30.5745 59.0731 29.7698 59.4307C28.98 59.7735 28.1008 59.9448 27.1322 59.9448C25.5675 59.9448 24.3084 59.5201 23.3547 58.6708C22.4159 57.8214 21.9465 56.6665 21.9465 55.2062C21.9465 53.9544 22.2296 52.8219 22.7959 51.8086C23.377 50.7953 24.1743 49.9981 25.1876 49.4169C26.2158 48.8357 27.3706 48.5452 28.6522 48.5452C29.7698 48.5452 30.7309 48.7761 31.5356 49.2381C32.3403 49.6851 32.9066 50.3482 33.2344 51.2274L33.7261 48.6346H35.2461ZM27.4451 58.5366C28.4137 58.5366 29.2855 58.3131 30.0604 57.8661C30.8501 57.419 31.4611 56.8006 31.8933 56.0108C32.3403 55.2211 32.5638 54.3344 32.5638 53.3509C32.5638 52.278 32.2211 51.4435 31.5356 50.8474C30.8502 50.2365 29.8965 49.931 28.6745 49.931C27.691 49.931 26.8118 50.1545 26.0369 50.6016C25.2621 51.0486 24.6511 51.667 24.2041 52.4568C23.7719 53.2466 23.5558 54.1332 23.5558 55.1167C23.5558 56.1896 23.8986 57.0316 24.584 57.6426C25.2695 58.2386 26.2232 58.5366 27.4451 58.5366Z" fill="#303030"/>
<path d="M39.6617 48.6346H41.2488L38.9241 60.3919H37.3371L39.6617 48.6346ZM41.137 46.064C40.8241 46.064 40.5633 45.9597 40.3547 45.7511C40.1609 45.5425 40.0641 45.2966 40.0641 45.0135C40.0641 44.6707 40.1758 44.3876 40.3994 44.1641C40.6378 43.9257 40.9358 43.8065 41.2935 43.8065C41.6064 43.8065 41.8672 43.9108 42.0758 44.1194C42.2844 44.3131 42.3887 44.5441 42.3887 44.8123C42.3887 45.1699 42.2695 45.468 42.0311 45.7064C41.7927 45.9448 41.4946 46.064 41.137 46.064Z" fill="#303030"/>
<path d="M45.8881 56.8379C45.8285 57.1955 45.7987 57.4414 45.7987 57.5755C45.7987 58.6186 46.3649 59.1402 47.4975 59.1402C48.168 59.1402 48.7715 58.939 49.308 58.5366L49.688 59.7437C49.0174 60.2503 48.1457 60.5037 47.0728 60.5037C46.1936 60.5037 45.4932 60.2652 44.9716 59.7884C44.465 59.3115 44.2117 58.6559 44.2117 57.8214C44.2117 57.4935 44.2415 57.1881 44.3011 56.9049L45.6646 49.9757H43.5858L43.8317 48.6346H45.9328L46.4469 46.064H48.0339L47.5198 48.6346H51.0962L50.828 49.9757H47.2516L45.8881 56.8379Z" fill="#303030"/>
<path d="M65.0819 48.6346L62.7349 60.3919H61.215L61.595 58.5366C61.0287 59.1625 60.3581 59.6468 59.5833 59.9896C58.8084 60.3323 57.9515 60.5037 57.0127 60.5037C56.0143 60.5037 55.1277 60.3025 54.3528 59.9001C53.5779 59.4978 52.9744 58.9241 52.5423 58.179C52.1101 57.419 51.8941 56.5324 51.8941 55.5191C51.8941 54.1928 52.1772 53.0007 52.7434 51.9427C53.3246 50.8847 54.1218 50.0577 55.1351 49.4616C56.1484 48.8506 57.281 48.5452 58.5327 48.5452C59.6503 48.5452 60.5891 48.7687 61.3491 49.2157C62.1091 49.6479 62.6604 50.2737 63.0032 51.0933L63.4949 48.6346H65.0819ZM57.348 59.0955C58.3166 59.0955 59.1884 58.8645 59.9632 58.4025C60.7381 57.9257 61.3416 57.27 61.7738 56.4355C62.2208 55.5861 62.4444 54.6399 62.4444 53.5968C62.4444 52.4494 62.1016 51.5553 61.4161 50.9145C60.7456 50.2588 59.7993 49.931 58.5774 49.931C57.6088 49.931 56.7371 50.1694 55.9622 50.6463C55.1873 51.1231 54.5763 51.7862 54.1293 52.6356C53.6971 53.4701 53.4811 54.4089 53.4811 55.452C53.4811 56.5994 53.8164 57.4935 54.4869 58.1343C55.1724 58.7751 56.1261 59.0955 57.348 59.0955Z" fill="#303030"/>
<path d="M70.4629 43.8065H72.0499L68.7418 60.3919H67.1548L70.4629 43.8065Z" fill="#303030"/>
</svg>
