<svg width="71" height="44" viewBox="0 0 71 44" fill="none" xmlns="http://www.w3.org/2000/svg">
<path fill-rule="evenodd" clip-rule="evenodd" d="M18.3819 9.09543C8.94489 14.139 1.08533 18.339 0.916213 18.4288C0.634162 18.5784 1.18774 18.9266 7.58125 22.6214L14.5539 26.6508L14.5356 29.6676C14.5238 31.591 14.5705 32.7839 14.6641 32.9589C15.4863 34.4952 21.2843 35.8833 29.1827 36.4347C31.9123 36.6253 39.3046 36.6253 42.0342 36.4347C48.0499 36.0147 52.937 35.106 55.1493 33.9962C56.7414 33.1974 56.704 33.302 56.6796 29.7036L56.6588 26.6508L59.6346 24.8359L62.6104 23.0209L62.6473 25.9232L62.6844 28.8256L62.3247 29.1592C61.4572 29.9634 61.4077 31.0444 62.2018 31.8386C62.9321 32.5689 64.0804 32.5453 64.7609 31.7861C65.4728 30.9916 65.4279 29.9628 64.6496 29.2286L64.1827 28.7883V25.4622V22.1359L67.3902 20.3661C69.1543 19.3928 70.5847 18.5855 70.5689 18.5724C70.478 18.4963 35.9117 0.0624178 35.7437 0.000347492C35.6277 -0.0424455 28.1554 3.87195 18.3819 9.09543ZM40.8721 15.5192C46.4976 16.0048 51.2777 17.4917 54.3871 19.7237C55.9325 20.8329 56.253 21.237 56.253 22.077V22.7575L55.5084 22.151C52.426 19.6404 47.2296 18.0714 40.2569 17.5463C37.5683 17.3438 30.8512 17.4655 28.4991 17.7594C22.6853 18.4857 18.4036 19.9558 15.7085 22.151L14.9639 22.7575V22.0907C14.9639 21.25 15.2093 20.926 16.6603 19.85C20.2815 17.1651 25.9567 15.6251 33.3526 15.3205C34.9165 15.2561 39.1074 15.3669 40.8721 15.5192ZM39.9151 29.8636C46.8485 30.1176 51.7772 30.7759 53.6553 31.6985C54.4763 32.1016 54.5623 32.5744 53.8905 32.9896C52.7781 33.6771 49.0982 34.3415 44.2137 34.7369C40.3318 35.0511 30.8851 35.0511 27.0032 34.7369C15.6143 33.815 13.441 31.8348 22.4151 30.5559C24.9608 30.1932 27.4283 29.9922 30.8233 29.8708C34.9976 29.7216 36.0241 29.7208 39.9151 29.8636ZM64.6612 32.9437C63.9853 33.1664 62.7549 33.1954 62.3847 32.9972C62.2328 32.9158 62.0719 32.886 62.0272 32.9307C61.9825 32.9754 61.8075 34.903 61.6383 37.2142C61.4692 39.5255 61.2961 41.7745 61.2539 42.212L61.1771 43.0077L62.0988 42.0606C63.1216 41.0098 63.7147 40.7283 64.6775 40.8367L65.2764 40.9043V36.8195C65.2764 34.573 65.261 32.7412 65.2422 32.7491C65.2235 32.7571 64.962 32.8446 64.6612 32.9437Z" fill="black"/>
</svg>
