<svg width="185" height="365" viewBox="0 0 185 365" fill="none" xmlns="http://www.w3.org/2000/svg">
<circle cx="3.43286" cy="3.43311" r="2.5" fill="#F46A6A"/>
<circle cx="43.3291" cy="3.43311" r="2.5" fill="#F46A6A"/>
<circle cx="83.2256" cy="3.43311" r="2.5" fill="#F46A6A"/>
<circle cx="123.122" cy="3.43311" r="2.5" fill="#F46A6A"/>
<circle cx="163.018" cy="3.43311" r="2.5" fill="#F46A6A"/>
<circle cx="3.43286" cy="43.3294" r="2.5" fill="#F46A6A"/>
<circle cx="43.3291" cy="43.3294" r="2.5" fill="#F46A6A"/>
<circle cx="83.2256" cy="43.3294" r="2.5" fill="#F46A6A"/>
<circle cx="123.122" cy="43.3294" r="2.5" fill="#F46A6A"/>
<circle cx="163.018" cy="43.3294" r="2.5" fill="#F46A6A"/>
<circle cx="3.43286" cy="83.2257" r="2.5" fill="#F46A6A"/>
<circle cx="43.3291" cy="83.2257" r="2.5" fill="#F46A6A"/>
<circle cx="83.2256" cy="83.2257" r="2.5" fill="#F46A6A"/>
<circle cx="123.122" cy="83.2257" r="2.5" fill="#F46A6A"/>
<circle cx="163.018" cy="83.2257" r="2.5" fill="#F46A6A"/>
<circle cx="3.43286" cy="123.122" r="2.5" fill="#F46A6A"/>
<circle cx="43.3291" cy="123.122" r="2.5" fill="#F46A6A"/>
<circle cx="83.2256" cy="123.122" r="2.5" fill="#F46A6A"/>
<circle cx="123.122" cy="123.122" r="2.5" fill="#F46A6A"/>
<circle cx="163.018" cy="123.122" r="2.5" fill="#F46A6A"/>
<circle cx="3.43286" cy="163.018" r="2.5" fill="#F46A6A"/>
<circle cx="43.3291" cy="163.018" r="2.5" fill="#F46A6A"/>
<circle cx="83.2256" cy="163.018" r="2.5" fill="#F46A6A"/>
<circle cx="123.122" cy="163.018" r="2.5" fill="#F46A6A"/>
<circle cx="163.018" cy="163.018" r="2.5" fill="#F46A6A"/>
<circle cx="3.43286" cy="202.915" r="2.5" fill="#F46A6A"/>
<circle cx="43.3291" cy="202.915" r="2.5" fill="#F46A6A"/>
<circle cx="83.2256" cy="202.915" r="2.5" fill="#F46A6A"/>
<circle cx="123.122" cy="202.915" r="2.5" fill="#F46A6A"/>
<circle cx="163.018" cy="202.915" r="2.5" fill="#F46A6A"/>
<circle cx="3.43286" cy="242.811" r="2.5" fill="#F46A6A"/>
<circle cx="43.3291" cy="242.811" r="2.5" fill="#F46A6A"/>
<circle cx="83.2256" cy="242.811" r="2.5" fill="#F46A6A"/>
<circle cx="123.122" cy="242.811" r="2.5" fill="#F46A6A"/>
<circle cx="163.018" cy="242.811" r="2.5" fill="#F46A6A"/>
<circle cx="3.43286" cy="282.707" r="2.5" fill="#F46A6A"/>
<circle cx="43.3291" cy="282.707" r="2.5" fill="#F46A6A"/>
<circle cx="83.2256" cy="282.707" r="2.5" fill="#F46A6A"/>
<circle cx="123.122" cy="282.707" r="2.5" fill="#F46A6A"/>
<circle cx="163.018" cy="282.707" r="2.5" fill="#F46A6A"/>
<circle cx="3.43286" cy="322.604" r="2.5" fill="#F46A6A"/>
<circle cx="43.3291" cy="322.604" r="2.5" fill="#F46A6A"/>
<circle cx="83.2256" cy="322.604" r="2.5" fill="#F46A6A"/>
<circle cx="123.122" cy="322.604" r="2.5" fill="#F46A6A"/>
<circle cx="163.018" cy="322.604" r="2.5" fill="#F46A6A"/>
<circle cx="3.43286" cy="362.5" r="2.5" fill="#F46A6A"/>
<circle cx="43.3291" cy="362.5" r="2.5" fill="#F46A6A"/>
<circle cx="83.2256" cy="362.5" r="2.5" fill="#F46A6A"/>
<circle cx="123.122" cy="362.5" r="2.5" fill="#F46A6A"/>
<circle cx="163.018" cy="362.5" r="2.5" fill="#F46A6A"/>
</svg>
